<?xml version="1.0" encoding="UTF-8" standalone="no"?>
<!-- Created with Inkscape (http://www.inkscape.org/) -->

<svg
   xmlns:dc="http://purl.org/dc/elements/1.1/"
   xmlns:cc="http://creativecommons.org/ns#"
   xmlns:rdf="http://www.w3.org/1999/02/22-rdf-syntax-ns#"
   xmlns:svg="http://www.w3.org/2000/svg"
   xmlns="http://www.w3.org/2000/svg"
   xmlns:sodipodi="http://sodipodi.sourceforge.net/DTD/sodipodi-0.dtd"
   xmlns:inkscape="http://www.inkscape.org/namespaces/inkscape"
   width="744.09448819"
   height="1052.3622047"
   id="svg2"
   version="1.1"
   inkscape:version="0.48.0 r9654"
   sodipodi:docname="house.svg">
  <defs
     id="defs4" />
  <sodipodi:namedview
     id="base"
     pagecolor="#ffffff"
     bordercolor="#666666"
     borderopacity="1.0"
     inkscape:pageopacity="0.0"
     inkscape:pageshadow="2"
     inkscape:zoom="0.7"
     inkscape:cx="486.06734"
     inkscape:cy="634.4976"
     inkscape:document-units="px"
     inkscape:current-layer="layer1"
     showgrid="true"
     inkscape:snap-global="false"
     showguides="false"
     inkscape:window-width="1440"
     inkscape:window-height="853"
     inkscape:window-x="-2"
     inkscape:window-y="0"
     inkscape:window-maximized="1">
    <inkscape:grid
       type="xygrid"
       id="grid2995"
       empspacing="5"
       visible="true"
       enabled="true"
       snapvisiblegridlinesonly="true" />
  </sodipodi:namedview>
  <metadata
     id="metadata7">
    <rdf:RDF>
      <cc:Work
         rdf:about="">
        <dc:format>image/svg+xml</dc:format>
        <dc:type
           rdf:resource="http://purl.org/dc/dcmitype/StillImage" />
        <dc:title></dc:title>
      </cc:Work>
    </rdf:RDF>
  </metadata>
  <g
     inkscape:label="Layer 1"
     inkscape:groupmode="layer"
     id="layer1">
    <rect
       style="fill:none;stroke:#000000;stroke-width:1.23436248;stroke-opacity:1"
       id="rect2989"
       width="289.8537"
       height="290.47989"
       x="235.11719"
       y="297.47937" />
    <path
       style="fill:none;stroke:#000000;stroke-width:1px;stroke-linecap:butt;stroke-linejoin:miter;stroke-opacity:1"
       d="M 404.9449,297.27315 405,587.8979"
       id="path3787"
       inkscape:connector-curvature="0" />
    <path
       style="fill:none;stroke:#000000;stroke-width:1px;stroke-linecap:butt;stroke-linejoin:miter;stroke-opacity:1"
       d="m 405,437.36218 120,0"
       id="path3789"
       inkscape:connector-curvature="0" />
    <path
       style="fill:none;stroke:#000000;stroke-width:1px;stroke-linecap:butt;stroke-linejoin:miter;stroke-opacity:1"
       d="M 525,297.3845 525,51.647896"
       id="path3791"
       inkscape:connector-curvature="0" />
    <path
       style="fill:none;stroke:#000000;stroke-width:1px;stroke-linecap:butt;stroke-linejoin:miter;stroke-opacity:1"
       d="m 235,297.36218 0,-105 289.96365,-140.240423"
       id="path3793"
       inkscape:connector-curvature="0" />
    <rect
       style="fill:#bbbbbb;stroke:#000000;stroke-opacity:1;fill-opacity:1"
       id="rect3795"
       width="120.71429"
       height="80.714287"
       x="400.71429"
       y="154.50504" />
    <rect
       style="fill:#eabe8c;stroke:#000000;stroke-opacity:1;fill-opacity:1"
       id="rect3797"
       width="25"
       height="59.285713"
       x="238.57141"
       y="222.36218" />
    <rect
       style="fill:#bbbbbb;stroke:#000000;stroke-opacity:1;fill-opacity:1"
       id="rect3801"
       width="13.131983"
       height="87.378197"
       x="510.12704"
       y="150.80104" />
    <rect
       style="fill:#eabe8c;fill-opacity:1;stroke:#000000;stroke-opacity:1"
       id="rect3803"
       width="40"
       height="112.14286"
       x="274.28571"
       y="339.50504" />
    <g
       id="g3828"
       transform="translate(-4.9244937,-0.12626907)">
      <rect
         y="365.96387"
         x="260.03027"
         height="15.902567"
         width="17.140514"
         id="rect3807"
         style="fill:#dd9746;fill-opacity:1;stroke:#000000;stroke-width:1.06053936;stroke-opacity:1" />
      <path
         inkscape:connector-curvature="0"
         id="path3821"
         d="m 259.86174,360.85887 0,25.36161"
         style="fill:none;stroke:#000000;stroke-width:0.90728778px;stroke-linecap:butt;stroke-linejoin:miter;stroke-opacity:1" />
      <path
         inkscape:connector-curvature="0"
         id="path3823"
         d="m 277.09747,381.96161 0,4.24305"
         style="fill:none;stroke:#000000;stroke-width:1.02474427px;stroke-linecap:butt;stroke-linejoin:miter;stroke-opacity:1" />
    </g>
    <g
       transform="matrix(-1,0,0,1,596.45562,-0.88388348)"
       id="g3833">
      <rect
         style="fill:#dd9746;fill-opacity:1;stroke:#000000;stroke-width:1.06053936;stroke-opacity:1"
         id="rect3835"
         width="17.140514"
         height="15.902567"
         x="260.03027"
         y="365.96387" />
      <path
         style="fill:none;stroke:#000000;stroke-width:0.90728778px;stroke-linecap:butt;stroke-linejoin:miter;stroke-opacity:1"
         d="m 259.86174,360.85887 0,25.36161"
         id="path3837"
         inkscape:connector-curvature="0" />
      <path
         style="fill:none;stroke:#000000;stroke-width:1.02474427px;stroke-linecap:butt;stroke-linejoin:miter;stroke-opacity:1"
         d="m 277.09747,381.96161 0,4.24305"
         id="path3839"
         inkscape:connector-curvature="0" />
    </g>
    <g
       id="g3841"
       transform="translate(-7.7024134,41.416254)">
      <rect
         y="365.96387"
         x="260.03027"
         height="15.902567"
         width="17.140514"
         id="rect3843"
         style="fill:#dd9746;fill-opacity:1;stroke:#000000;stroke-width:1.06053936;stroke-opacity:1" />
      <path
         inkscape:connector-curvature="0"
         id="path3845"
         d="m 259.86174,360.85887 0,25.36161"
         style="fill:none;stroke:#000000;stroke-width:0.90728778px;stroke-linecap:butt;stroke-linejoin:miter;stroke-opacity:1" />
      <path
         inkscape:connector-curvature="0"
         id="path3847"
         d="m 277.09747,381.96161 0,4.24305"
         style="fill:none;stroke:#000000;stroke-width:1.02474427px;stroke-linecap:butt;stroke-linejoin:miter;stroke-opacity:1" />
    </g>
    <g
       transform="matrix(-1,0,0,1,595.31919,48.487322)"
       id="g3849">
      <rect
         style="fill:#dd9746;fill-opacity:1;stroke:#000000;stroke-width:1.06053936;stroke-opacity:1"
         id="rect3851"
         width="17.140514"
         height="15.902567"
         x="260.03027"
         y="365.96387" />
      <path
         style="fill:none;stroke:#000000;stroke-width:0.90728778px;stroke-linecap:butt;stroke-linejoin:miter;stroke-opacity:1"
         d="m 259.86174,360.85887 0,25.36161"
         id="path3853"
         inkscape:connector-curvature="0" />
      <path
         style="fill:none;stroke:#000000;stroke-width:1.02474427px;stroke-linecap:butt;stroke-linejoin:miter;stroke-opacity:1"
         d="m 277.09747,381.96161 0,4.24305"
         id="path3855"
         inkscape:connector-curvature="0" />
    </g>
    <g
       id="g3857"
       transform="matrix(-1,0,0,1,545.94799,-120.08188)">
      <rect
         y="365.96387"
         x="260.03027"
         height="15.902567"
         width="17.140514"
         id="rect3859"
         style="fill:#dd9746;fill-opacity:1;stroke:#000000;stroke-width:1.06053936;stroke-opacity:1" />
      <path
         inkscape:connector-curvature="0"
         id="path3861"
         d="m 259.86174,360.85887 0,25.36161"
         style="fill:none;stroke:#000000;stroke-width:0.90728778px;stroke-linecap:butt;stroke-linejoin:miter;stroke-opacity:1" />
      <path
         inkscape:connector-curvature="0"
         id="path3863"
         d="m 277.09747,381.96161 0,4.24305"
         style="fill:none;stroke:#000000;stroke-width:1.02474427px;stroke-linecap:butt;stroke-linejoin:miter;stroke-opacity:1" />
    </g>
    <rect
       y="527.54077"
       x="498.92856"
       height="59.285713"
       width="25"
       id="rect3884"
       style="fill:#d3bda3;fill-opacity:1;stroke:#000000;stroke-opacity:1" />
    <rect
       style="fill:#d3bda3;fill-opacity:1;stroke:#000000;stroke-opacity:1"
       id="rect3886"
       width="25"
       height="59.285713"
       x="561.82648"
       y="-498.92856"
       transform="matrix(0,1,-1,0,0,0)" />
    <rect
       style="fill:#d3bda3;fill-opacity:1;stroke:#000000;stroke-opacity:1"
       id="rect3888"
       width="25"
       height="59.285713"
       x="497.5"
       y="305.39792" />
    <rect
       y="374.68362"
       x="497.5"
       height="59.285713"
       width="25"
       id="rect3890"
       style="fill:#d3bda3;fill-opacity:1;stroke:#000000;stroke-opacity:1" />
    <path
       sodipodi:type="arc"
       style="fill:#eabe8c;fill-opacity:1;stroke:#000000;stroke-opacity:1"
       id="path3892"
       sodipodi:cx="471.42856"
       sodipodi:cy="499.14789"
       sodipodi:rx="25"
       sodipodi:ry="24.642857"
       d="m 496.42856,499.14789 a 25,24.642857 0 1 1 -50,0 25,24.642857 0 1 1 50,0 z"
       transform="translate(-4.2857143,-8.5714286)" />
    <g
       transform="matrix(-0.96017103,-0.27941297,-0.27941297,0.96017103,868.58699,220.30157)"
       id="g3894">
      <rect
         style="fill:#dd9746;fill-opacity:1;stroke:#000000;stroke-width:1.06053936;stroke-opacity:1"
         id="rect3896"
         width="17.140514"
         height="15.902567"
         x="260.03027"
         y="365.96387" />
      <path
         style="fill:none;stroke:#000000;stroke-width:0.90728778px;stroke-linecap:butt;stroke-linejoin:miter;stroke-opacity:1"
         d="m 259.86174,360.85887 0,25.36161"
         id="path3898"
         inkscape:connector-curvature="0" />
      <path
         style="fill:none;stroke:#000000;stroke-width:1.02474427px;stroke-linecap:butt;stroke-linejoin:miter;stroke-opacity:1"
         d="m 277.09747,381.96161 0,4.24305"
         id="path3900"
         inkscape:connector-curvature="0" />
    </g>
    <g
       id="g3902"
       transform="matrix(-0.96821528,0.25011834,0.25011834,0.96821528,667.81242,37.083475)">
      <rect
         y="365.96387"
         x="260.03027"
         height="15.902567"
         width="17.140514"
         id="rect3904"
         style="fill:#dd9746;fill-opacity:1;stroke:#000000;stroke-width:1.06053936;stroke-opacity:1" />
      <path
         inkscape:connector-curvature="0"
         id="path3906"
         d="m 259.86174,360.85887 0,25.36161"
         style="fill:none;stroke:#000000;stroke-width:0.90728778px;stroke-linecap:butt;stroke-linejoin:miter;stroke-opacity:1" />
      <path
         inkscape:connector-curvature="0"
         id="path3908"
         d="m 277.09747,381.96161 0,4.24305"
         style="fill:none;stroke:#000000;stroke-width:1.02474427px;stroke-linecap:butt;stroke-linejoin:miter;stroke-opacity:1" />
    </g>
    <path
       style="fill:#e6ea8c;fill-opacity:0.52118641;stroke:#000000;stroke-width:0.71428572999999995;stroke-opacity:1"
       d="m 235.89751,244.77057 0.18324,-51.90685 143.57143,-69.48302 c 78.96428,-38.215664 143.8125,-69.50044 144.10714,-69.521727 0.29464,-0.02129 0.53572,21.657725 0.53572,48.175577 l 0,48.21429 -7.5,0 -7.5,0 0,1.78571 0,1.78572 -54.64286,0 -54.64286,0 0,41.07143 0,41.07143 54.64286,0 c 54.16666,0 54.64286,0.0124 54.64286,1.42857 0,1.33787 0.47619,1.42857 7.5,1.42857 l 7.5,0 0,28.92857 0,28.92857 -144.29038,0 -144.29039,0 0.18324,-51.90684 0,0 z m 28.39753,7.26398 0,-30.35714 -13.21429,0 -13.21429,0 0,30.35714 0,30.35715 13.21429,0 13.21429,0 0,-30.35715 z m 5.71428,12.5 0,-2.14285 7.5,0 7.5,0 0,2.14285 c 0,1.42858 0.35714,2.14286 1.07143,2.14286 0.91377,0 1.07143,-1.94444 1.07143,-13.21428 0,-11.26985 -0.15766,-13.21429 -1.07143,-13.21429 -0.7483,0 -1.07143,0.75397 -1.07143,2.5 l 0,2.5 -8.57143,0 -8.57143,0 0,10.71429 c 0,9.04762 0.16667,10.71428 1.07143,10.71428 0.71429,0 1.07143,-0.71428 1.07143,-2.14286 z"
       id="path3929"
       inkscape:connector-curvature="0" />
    <path
       style="fill:#c0ea8c;fill-opacity:0.52118641;stroke:#000000;stroke-width:0.71428572999999995;stroke-opacity:1"
       d="m 405.72361,367.3917 0,-69.28572 59.28571,0 59.28572,0 0,69.28572 0,69.28571 -59.28572,0 -59.28571,0 0,-69.28571 z m 117.85714,36.78571 0,-30.35714 -13.57143,0 -13.57143,0 0,30.35714 0,30.35715 13.57143,0 13.57143,0 0,-30.35715 z m 0,-69.28571 0,-30.35715 -13.57143,0 -13.57143,0 0,30.35715 0,30.35714 13.57143,0 13.57143,0 0,-30.35714 z"
       id="path3931"
       inkscape:connector-curvature="0" />
    <path
       style="fill:#8ceab1;fill-opacity:0.52118641;stroke:#000000;stroke-width:0.71428572999999995;stroke-opacity:1"
       d="m 235.72361,442.3917 0,-144.28572 84.28571,0 84.28572,0 0,144.28572 0,144.28571 -84.28572,0 -84.28571,0 0,-144.28571 z m 79.28571,-46.78572 0,-56.78571 -20.71428,0 -20.71429,0 0,56.78571 0,56.78572 20.71429,0 20.71428,0 0,-56.78572 z m 4.28572,37.5 0,-2.14285 7.85714,0 7.85714,0 0,2.14285 c 0,1.17858 0.32143,2.14286 0.71429,2.14286 0.45045,0 0.71428,-4.88095 0.71428,-13.21428 0,-8.33334 -0.26383,-13.21429 -0.71428,-13.21429 -0.39286,0 -0.71429,1.125 -0.71429,2.5 l 0,2.5 -8.92857,0 -8.92857,0 0,10.71429 c 0,9.04762 0.16666,10.71428 1.07143,10.71428 0.71428,0 1.07143,-0.71428 1.07143,-2.14286 z m -66.42858,-7.14285 0,-2.14286 7.85715,0 7.85714,0 0,2.14286 c 0,1.17857 0.32143,2.14285 0.71429,2.14285 0.44444,0 0.71428,-4.04762 0.71428,-10.71428 l 0,-10.71429 -8.57143,0 -8.57143,0 0,-2.5 c 0,-1.375 -0.32142,-2.5 -0.71428,-2.5 -0.45045,0 -0.71429,4.88095 -0.71429,13.21429 0,8.33333 0.26384,13.21428 0.71429,13.21428 0.39286,0 0.71428,-0.96428 0.71428,-2.14285 z m 2.85715,-41.42857 0,-2.14286 7.85714,0 7.85714,0 0,2.14286 c 0,1.17857 0.32143,2.14285 0.71429,2.14285 0.44444,0 0.71428,-4.04762 0.71428,-10.71428 l 0,-10.71429 -8.57142,0 -8.57143,0 0,-2.5 c 0,-1.375 -0.32143,-2.5 -0.71429,-2.5 -0.45045,0 -0.71428,4.88095 -0.71428,13.21429 0,8.33333 0.26383,13.21428 0.71428,13.21428 0.39286,0 0.71429,-0.96428 0.71429,-2.14285 z m 64.28571,-0.71429 0,-2.14286 7.85714,0 7.85715,0 0,2.14286 c 0,1.17857 0.32143,2.14286 0.71428,2.14286 0.45045,0 0.71429,-4.88095 0.71429,-13.21429 0,-8.33333 -0.26384,-13.21428 -0.71429,-13.21428 -0.39285,0 -0.71428,1.125 -0.71428,2.5 l 0,2.5 -8.57143,0 -8.57143,0 0,10.71428 c 0,6.66667 0.26984,10.71429 0.71429,10.71429 0.39285,0 0.71428,-0.96429 0.71428,-2.14286 z"
       id="path3933"
       inkscape:connector-curvature="0" />
    <path
       style="fill:#978cea;fill-opacity:0.52118641;stroke:#000000;stroke-width:0.71428572999999995;stroke-opacity:1"
       d="m 405.72361,512.3917 0,-74.28572 59.28571,0 59.28572,0 0,44.28572 0,44.28571 -13.21429,0 -13.21429,0 0,17.14286 0,17.14286 -29.64285,0 -29.64286,0 0,12.85714 0,12.85714 -16.42857,0 -16.42857,0 0,-74.28571 z m 108.4828,-1.25 c 4.97333,-17.05313 5.03638,-17.32143 4.07011,-17.32143 -0.50473,0 -1.20526,0.92933 -1.55673,2.06519 l -0.63904,2.06519 -8.16729,-2.40981 c -4.49201,-1.32539 -8.24171,-2.33508 -8.33267,-2.24376 -0.091,0.0913 -1.36103,4.34462 -2.82237,9.45176 -1.46133,5.10714 -2.80852,9.6875 -2.99374,10.17857 -0.18522,0.49107 0.17976,0.89286 0.81108,0.89286 0.63132,0 1.14785,-0.49223 1.14785,-1.09384 0,-1.88862 1.59848,-1.84457 8.57851,0.2364 6.52432,1.94511 6.77002,2.0929 6.54894,3.93918 -0.12633,1.05505 0.0731,1.91826 0.44315,1.91826 0.37007,0 1.68056,-3.45536 2.9122,-7.67857 l 0,0 z m -36.19959,2.51436 c 5.16438,-2.36662 10.14945,-7.33481 12.59523,-12.55258 1.62416,-3.46494 1.90727,-5.02318 1.90727,-10.4975 0,-5.47431 -0.28311,-7.03256 -1.90727,-10.49749 -2.44578,-5.21777 -7.43085,-10.18596 -12.59523,-12.55258 -5.83021,-2.67175 -13.94463,-3.03119 -19.67155,-0.87139 -16.32931,6.15831 -22.07935,25.68752 -11.603,39.40798 2.91983,3.82399 7.13776,6.82511 12.06265,8.58273 5.37794,1.91933 13.77122,1.47407 19.2119,-1.01917 l 0,0 z m 18.56375,-35.0368 c -0.24387,-2.02312 -0.87286,-1.73532 9.61328,-4.3986 5.46365,-1.38766 5.0171,-1.44168 5.54736,0.67104 0.37892,1.50974 1.84954,2.61241 1.84954,1.38679 0,-0.59405 -4.20813,-17.24008 -5.45174,-21.56536 -1.19004,-4.13897 -2.74058,-5.19159 -2.02446,-1.37436 l 0.44567,2.37565 -7.73473,2.01376 c -4.25411,1.10756 -7.96363,2.21205 -8.24338,2.45442 -0.77981,0.67559 4.58227,20.85167 5.46277,20.55492 0.41808,-0.1409 0.65915,-1.09411 0.53569,-2.11826 l 0,0 z"
       id="path3935"
       inkscape:connector-curvature="0" />
  </g>
</svg>
